<svg width="91" height="100" viewBox="0 0 91 100" fill="none" xmlns="http://www.w3.org/2000/svg">
<circle cx="45.2162" cy="45.2162" r="45.2162" fill="#FFE401"/>
<path d="M55.4738 25.8379L54.1819 67.1784L34.1576 59.4271L16.717 44.5703L55.4738 25.8379Z" fill="white"/>
<path fill-rule="evenodd" clip-rule="evenodd" d="M26.2026 97.5033L31.5317 100C37.3151 84.6071 43.8528 67.7571 44.6066 67.7571C45.4127 67.7571 46.994 68.2221 49.3504 69.1523C51.7068 70.0825 53.2261 70.5475 53.9082 70.5475C55.7685 70.5475 56.6987 69.6174 56.6987 67.7571C56.6987 66.6409 55.7685 65.7107 53.9082 64.9666C49.2574 63.1063 44.1002 62.0107 42.488 62.0107C40.1053 62.0107 32.495 80.6847 26.2026 97.5033Z" fill="black"/>
<path fill-rule="evenodd" clip-rule="evenodd" d="M56.9561 23.6691C57.71 24.1575 58.1562 25.0023 58.1344 25.9003L57.1332 67.2408C57.0987 68.6673 55.9142 69.7958 54.4876 69.7612C53.0611 69.7267 51.9326 68.5422 51.9672 67.1157L52.8665 29.9827L20.537 45.4174L33.3725 54.7279L40.8903 43.5185C41.6852 42.3334 43.2902 42.017 44.4754 42.8118C45.6605 43.6067 45.9769 45.2117 45.1821 46.3969L36.1711 59.8325C35.7802 60.4153 35.1691 60.8141 34.4783 60.9371C33.7874 61.0602 33.0762 60.8969 32.5081 60.4848L13.9857 47.0492C13.2481 46.5141 12.8468 45.6302 12.9297 44.7227C13.0125 43.8153 13.5673 43.0186 14.3896 42.626L54.4382 23.506C55.2488 23.119 56.2022 23.1808 56.9561 23.6691Z" fill="black"/>
</svg>
